<?xml version="1.0" standalone="no"?>
<!DOCTYPE svg PUBLIC "-//W3C//DTD SVG 20010904//EN"
 "http://www.w3.org/TR/2001/REC-SVG-20010904/DTD/svg10.dtd">
<svg version="1.0" xmlns="http://www.w3.org/2000/svg"
 width="195.000000pt" height="195.000000pt" viewBox="0 0 195.000000 195.000000"
 preserveAspectRatio="xMidYMid meet">
<metadata>
Created by potrace 1.14, written by Peter Selinger 2001-2017
</metadata>
<g transform="translate(0.000000,195.000000) scale(0.100000,-0.100000)"
fill="#000000" stroke="none">
<path d="M304 1490 c-94 -47 -111 -177 -33 -246 81 -72 217 -35 248 66 13 43
3 101 -24 136 -48 63 -119 80 -191 44z"/>
<path d="M944 1495 c-26 -12 -105 -101 -254 -289 -8 -10 -22 -26 -30 -35 -8
-9 -27 -32 -41 -51 -15 -19 -35 -45 -45 -56 -11 -12 -30 -36 -44 -54 -14 -18
-29 -38 -35 -44 -5 -6 -48 -58 -95 -116 -46 -58 -87 -107 -90 -110 -28 -26
-96 -130 -86 -130 3 0 1 -11 -3 -24 -7 -17 -4 -36 14 -73 18 -40 32 -55 67
-72 97 -46 148 -22 258 120 14 18 37 46 52 63 26 31 109 133 160 197 14 19 35
44 45 56 20 24 30 36 88 108 21 28 42 52 45 55 3 3 41 50 85 105 44 55 88 108
97 119 9 10 20 33 25 50 31 128 -93 233 -213 181z"/>
<path d="M1585 1496 c-46 -21 -73 -52 -85 -97 -35 -130 93 -236 212 -176 79
40 109 122 72 200 -32 67 -132 104 -199 73z"/>
<path d="M1318 1150 c-40 -12 -60 -28 -119 -100 -30 -36 -58 -70 -64 -77 -5
-6 -21 -26 -35 -44 -14 -18 -33 -41 -42 -51 -10 -10 -18 -22 -18 -26 0 -4 -9
-14 -20 -22 -11 -8 -20 -18 -20 -22 0 -4 -8 -16 -17 -26 -28 -30 -56 -64 -92
-114 -26 -36 -34 -57 -34 -90 0 -137 154 -207 253 -115 32 29 65 68 155 182
17 21 35 43 40 49 6 6 26 31 44 54 41 52 70 87 94 113 9 10 17 22 17 25 0 4
10 15 22 25 11 11 18 19 13 19 -4 0 -2 7 5 15 7 8 12 36 12 61 -2 100 -98 171
-194 144z"/>
</g>
</svg>
